<svg width="35" height="36" viewBox="0 0 35 36" fill="none" xmlns="http://www.w3.org/2000/svg">
<path d="M34.9796 27.1943C34.6676 29.6334 33.503 31.8722 31.7034 33.4927C29.9038 35.1131 27.5922 36.0044 25.2004 36C11.3052 36 1.58354e-05 24.3719 1.58354e-05 10.0797C-0.0042717 7.61963 0.862233 5.24205 2.43769 3.39104C4.01315 1.54003 6.18982 0.342191 8.56116 0.021236C9.16082 -0.0540751 9.76807 0.0721079 10.2923 0.380949C10.8165 0.689789 11.2295 1.16472 11.4697 1.73485L15.1658 10.2219V10.2435C15.3497 10.68 15.4256 11.1564 15.3869 11.6304C15.3481 12.1044 15.1958 12.5611 14.9435 12.9598C14.912 13.0084 14.8788 13.0534 14.8438 13.0984L11.2002 17.5408C12.511 20.2804 15.297 23.1209 17.9956 24.4727L22.2551 20.7448C22.2969 20.7086 22.3408 20.675 22.3864 20.644C22.7737 20.3784 23.2192 20.2162 23.6828 20.1722C24.1463 20.1282 24.6132 20.2037 25.0412 20.392L25.0639 20.4028L33.3083 24.2027C33.8636 24.4489 34.3265 24.8733 34.6277 25.4126C34.929 25.9518 35.0524 26.5769 34.9796 27.1943Z" fill="black"/>
</svg>
