<svg xmlns="http://www.w3.org/2000/svg"  viewBox="0 0 100 100" width="100px" height="100px"><circle cx="77" cy="13" r="1" fill="#f1bc19"/><circle cx="50" cy="50" r="37" fill="#e6edb7"/><circle cx="83" cy="15" r="4" fill="#f1bc19"/><circle cx="87" cy="24" r="2" fill="#88ae45"/><circle cx="81" cy="76" r="2" fill="#fbcd59"/><circle cx="15" cy="63" r="4" fill="#fbcd59"/><circle cx="18.5" cy="51.5" r="2.5" fill="#fff"/><circle cx="79.5" cy="33.5" r="1.5" fill="#fff"/><circle cx="23" cy="83" r="2" fill="#88ae45"/><path fill="#fbcd59" d="M64.719,73H33.281C29.26,73,26,69.74,26,65.719V34.281C26,30.26,29.26,27,33.281,27h31.438	C68.74,27,72,30.26,72,34.281v31.438C72,69.74,68.74,73,64.719,73z"/><path fill="#f5e690" d="M63.938,70H34.063C31.267,70,29,67.733,29,64.938V35.063C29,32.267,31.267,30,34.063,30h29.875	C66.733,30,69,32.267,69,35.063v29.875C69,67.733,66.733,70,63.938,70z"/><path fill="none" stroke="#472b29" stroke-linecap="round" stroke-linejoin="round" stroke-miterlimit="10" stroke-width="1.4" d="M64.719,73H33.281C29.26,73,26,69.74,26,65.719V34.281C26,30.26,29.26,27,33.281,27h31.438C68.74,27,72,30.26,72,34.281v31.438	C72,69.74,68.74,73,64.719,73z"/><path fill="none" stroke="#472b29" stroke-linecap="round" stroke-linejoin="round" stroke-miterlimit="10" d="M29.5,53.667V35.333	c0-2.669,2.164-4.833,4.833-4.833h8"/><path fill="none" stroke="#472b29" stroke-linecap="round" stroke-linejoin="round" stroke-miterlimit="10" d="M42.583,69.5h-8.25	c-2.669,0-4.833-2.164-4.833-4.833v-4.333"/><path fill="none" stroke="#472b29" stroke-linecap="round" stroke-linejoin="round" stroke-miterlimit="10" d="M68.5,46.583v18.083	c0,2.669-2.164,4.833-4.833,4.833h-16.75"/><path fill="none" stroke="#472b29" stroke-linecap="round" stroke-linejoin="round" stroke-miterlimit="10" d="M60.917,30.5h2.75	c2.669,0,4.833,2.164,4.833,4.833v6.333"/><line x1="47.25" x2="56.5" y1="30.5" y2="30.5" fill="none" stroke="#472b29" stroke-linecap="round" stroke-linejoin="round" stroke-miterlimit="10"/><path fill="#fff" stroke="#472b29" stroke-linecap="round" stroke-linejoin="round" stroke-miterlimit="10" d="M49.095,64.478	l-0.249-0.006c0.011,0.003-0.051,0.006-0.114,0.006c-1.878,0-3.096-0.89-4.168-1.674c-0.678-0.493-1.317-0.962-2.005-1.08	c-1.032-0.178-2.02-0.033-2.598,0.083c-0.282,0.058-0.526,0.101-0.71,0.101c-0.642,0-0.866-0.442-0.941-0.706	c-0.085-0.303-0.142-0.588-0.199-0.866c-0.166-0.16-0.34-0.326-0.507-0.486c-2.087-0.384-3.21-0.92-3.521-1.675	c-0.048-0.118-0.076-0.239-0.082-0.361c-0.025-0.44,0.28-0.828,0.707-0.899c3.829-0.652,5.608-4.778,5.682-4.952	c0.2-0.423,0.244-0.732,0.152-0.96c-0.189-0.46-1.006-0.728-1.496-0.888c-0.172-0.057-0.323-0.107-0.442-0.156	c-1.505-0.615-1.706-1.366-1.609-1.889c0.176-0.971,1.496-1.44,2.228-1.084c0.671,0.324,1.038,0.379,1.308,0.296l0.031-0.688	c-0.127-2.082-0.088-4.553,0.588-6.116c1.993-4.617,5.591-5.134,6.837-5.134h0.668c2.287,0,4.541,0.953,5.813,2.313	c2.039,2.451,2.232,6.952,2.125,9.094l0.154,0.996c0.062,0.017,0.141,0.033,0.24,0.036c0.277-0.013,0.67-0.129,1.094-0.335	c0.574-0.28,0.995-0.152,1.346,0.002c0.596,0.217,0.999,0.709,1.007,1.245c0.015,0.666-0.52,1.227-1.586,1.663	c-0.118,0.049-0.269,0.097-0.429,0.151c-0.469,0.152-1.253,0.41-1.433,0.849c-0.09,0.214-0.045,0.508,0.13,0.875	c0.036,0.085,1.756,4.176,5.497,4.812c0.422,0.072,0.722,0.456,0.696,0.893c-0.006,0.119-0.034,0.242-0.085,0.36	c-0.317,0.77-1.522,1.309-3.787,1.685c-0.046,0.146-0.102,0.407-0.127,0.52c-0.048,0.233-0.097,0.459-0.164,0.696	c-0.091,0.317-0.295,0.541-0.572,0.637v0.052l-0.323-0.025c-0.113-0.014-0.243-0.036-0.387-0.066	c-0.679-0.137-1.593-0.242-2.599-0.072c-0.688,0.119-1.326,0.585-2.002,1.078C52.187,63.588,50.971,64.478,49.095,64.478z"/></svg>