<svg width="74" height="71" viewBox="0 0 74 71" fill="none" xmlns="http://www.w3.org/2000/svg">
<g filter="url(#filter0_d_10_83)">
<path d="M57.5147 22.4024C57.5464 22.0372 57.5464 21.6701 57.5147 21.3048C57.2889 19.8058 56.4825 18.4371 55.2492 17.4592C54.0159 16.4814 52.4419 15.9627 50.8268 16.0021H22.7546C22.1014 16.0167 21.4582 16.1019 20.8249 16.2575C19.4071 16.6219 18.1609 17.422 17.2865 18.5295C16.412 19.6369 15.96 20.9875 16.0028 22.3645V48.4589C15.9957 48.9951 16.0518 49.5253 16.171 50.0495C16.4997 51.4671 17.3495 52.7314 18.5719 53.6215C19.7944 54.5116 21.3118 54.9709 22.859 54.9191H50.6777C51.5053 54.9259 52.328 54.7997 53.1101 54.5459C54.42 54.135 55.5545 53.3411 56.347 52.2809C57.1395 51.2208 57.5481 49.9504 57.5126 48.6565C57.5339 39.8393 57.5147 31.1219 57.5147 22.4024Z" fill="#FFFC08"/>
</g>
<path d="M50.5146 42.5863C50.5126 42.584 50.5092 42.5806 50.5036 42.5759C50.4797 42.556 50.438 42.5331 50.373 42.5032C50.3448 42.4902 50.3131 42.4764 50.2787 42.4614C50.164 42.4112 50.0199 42.3482 49.8772 42.2621L49.8768 42.2618C49.584 42.0833 49.337 41.9404 49.1073 41.8075C48.6812 41.5608 48.315 41.3488 47.8279 41.0092C46.3984 40.0563 45.3322 38.7301 44.7781 37.2115C44.6203 36.7887 44.6206 36.457 44.749 36.1829C44.8755 35.913 45.118 35.718 45.4018 35.5487L45.4018 35.5487C45.6502 35.4008 45.898 35.2612 46.1426 35.1234C46.1761 35.1045 46.2096 35.0857 46.243 35.0669C46.52 34.9106 46.7926 34.7555 47.0595 34.5906C47.3678 34.3871 47.6505 34.1548 47.9029 33.8977C48.0018 33.781 48.0541 33.6402 48.0541 33.4971C48.0541 33.3528 48.001 33.2111 47.9007 33.0939L47.896 33.0884L47.8922 33.0822C47.8157 32.961 47.7006 32.8605 47.5594 32.794C47.4182 32.7276 47.2577 32.6986 47.0975 32.7112L47.0853 32.7122L47.0732 32.7102C46.8855 32.679 46.6929 32.6786 46.5051 32.7092L44.9254 33.1858C44.9252 33.1858 44.9251 33.1859 44.9249 33.1859C44.7899 33.2281 44.6743 33.2579 44.5777 33.2681C44.4815 33.2783 44.3892 33.2707 44.313 33.2214C44.2349 33.1709 44.1935 33.0898 44.1707 32.9974C44.1483 32.9059 44.1409 32.7908 44.1409 32.6539V29.3173V29.3144L44.141 29.3144C44.1753 28.1246 43.7951 26.9534 43.0509 25.9628C42.3066 24.972 41.2347 24.2104 39.982 23.7853L39.9777 23.7839L39.9777 23.7838C38.0455 23.0281 35.8585 22.9761 33.8837 23.6393L33.878 23.6412L33.878 23.641C32.7253 23.9528 31.6992 24.5544 30.9216 25.3722C30.1451 26.189 29.6495 27.1868 29.4921 28.2459C29.3888 29.5925 29.3888 30.9438 29.4924 32.2903L29.4927 32.2941L29.4926 32.2941L29.493 32.3057C29.4987 32.4509 29.5039 32.5835 29.4982 32.6948C29.4925 32.807 29.4753 32.9146 29.4236 32.9978C29.3664 33.0896 29.2761 33.1382 29.1593 33.147C29.0494 33.1552 28.9127 33.129 28.7454 33.0754L28.7407 33.0739L28.7408 33.0737L28.4326 32.9579L28.132 32.8959L28.125 32.8945L28.125 32.8942C27.6615 32.7637 27.19 32.6535 26.7106 32.5636L26.7096 32.5635C26.5464 32.5312 26.3759 32.5486 26.2258 32.6124C26.0757 32.6762 25.9562 32.7818 25.884 32.9105L25.8801 32.9174L25.8752 32.9236C25.7752 33.0498 25.7226 33.1991 25.7226 33.3509C25.7226 33.5005 25.7738 33.6477 25.871 33.7728C26.133 34.0223 26.4232 34.2473 26.737 34.444L26.7386 34.445C27.2007 34.7465 27.6885 35.0354 28.1753 35.3236C28.3251 35.4123 28.4748 35.501 28.6237 35.5899C28.851 35.7124 29.0235 35.9062 29.1056 36.1376C29.1873 36.3677 29.1729 36.6166 29.0658 36.8373C28.7525 37.8044 28.2239 38.7023 27.5042 39.4737L27.503 39.4749C26.3639 40.655 24.9604 41.6072 23.3839 42.2704M50.5146 42.5863L43.6812 45.638C42.4881 45.816 41.3567 46.2291 40.3652 46.8456L40.3148 46.7592C40.3144 46.7594 40.314 46.7596 40.3136 46.7599C39.1765 47.4232 37.8416 47.7668 36.4818 47.7452C35.1215 47.7235 33.8008 47.3375 32.6908 46.6381L32.6908 46.638L32.6868 46.6357C31.276 45.8353 29.6364 45.4183 27.9668 45.4342H27.8485C27.6224 45.4342 27.4519 45.4262 27.32 45.4035C27.1889 45.3809 27.1032 45.3449 27.0412 45.2944C26.9797 45.2442 26.9321 45.172 26.8911 45.0594C26.85 44.9462 26.8178 44.7992 26.7832 44.6044C26.7691 44.4254 26.6967 44.2553 26.5766 44.1149C26.456 43.974 26.2928 43.8693 26.1084 43.8124C25.9115 43.7413 25.7155 43.6845 25.5234 43.6289L25.5083 43.6245C25.3096 43.5669 25.1148 43.5101 24.9206 43.4384L24.92 43.4382C24.783 43.3887 24.6223 43.335 24.4508 43.2776C24.1122 43.1644 23.7314 43.0371 23.4071 42.9C23.2854 42.8481 23.2002 42.8077 23.1402 42.7743C23.0793 42.7403 23.0512 42.717 23.0378 42.7014C23.0232 42.6845 23.0232 42.6812 23.024 42.6299C23.0242 42.6157 23.0244 42.5977 23.0244 42.5747C23.0244 42.5386 23.0521 42.4859 23.1281 42.4224C23.1998 42.3626 23.2953 42.3095 23.3839 42.2704M50.5146 42.5863L50.5143 42.5878V42.5959C50.5143 42.6065 50.5094 42.6283 50.4895 42.6612C50.4704 42.6927 50.4417 42.7276 50.4055 42.7623C50.3322 42.8325 50.2397 42.891 50.1633 42.9161L50.1633 42.916L50.1604 42.9171C49.4144 43.1879 48.6735 43.4567 47.8419 43.6648M50.5146 42.5863L47.8419 43.6648M23.3839 42.2704C23.3836 42.2705 23.3833 42.2706 23.383 42.2707L23.3442 42.1786M23.3839 42.2704C23.3841 42.2703 23.3843 42.2702 23.3846 42.2701L23.3442 42.1786M23.3442 42.1786C24.9092 41.5204 26.3016 40.5756 27.4311 39.4055L23.368 42.9921C22.9189 42.8002 22.9202 42.7484 22.9237 42.6145C22.9241 42.602 22.9244 42.5888 22.9244 42.5747C22.9244 42.4095 23.1569 42.2612 23.3442 42.1786ZM25.7968 32.8615C25.6835 33.0046 25.6226 33.1756 25.6226 33.3509C25.6226 33.5262 25.6835 33.6971 25.7968 33.8402C26.0651 34.0965 26.3624 34.3272 26.6839 34.5288C27.148 34.8316 27.6385 35.122 28.1256 35.4104C28.2758 35.4994 28.4257 35.5881 28.5743 35.677L25.7968 32.8615ZM25.7968 32.8615C25.8806 32.7122 26.0178 32.5921 26.1867 32.5204C26.3555 32.4486 26.5464 32.4292 26.729 32.4654M25.7968 32.8615L26.729 32.4654M26.729 32.4654C27.2113 32.5557 27.6857 32.6666 28.1521 32.798M26.729 32.4654L28.1521 32.798M28.1521 32.798L28.4605 32.8615L28.776 32.9801M28.1521 32.798L28.776 32.9801M28.776 32.9801C29.4276 33.1889 29.4165 32.9065 29.393 32.3065L29.3927 32.298M28.776 32.9801L29.3927 32.298M29.3927 32.298C29.2887 30.9452 29.2887 29.5876 29.3927 28.2348C29.5526 27.1529 30.0583 26.1351 30.8492 25.3033C31.64 24.4715 32.6825 23.8608 33.8519 23.5445M29.3927 32.298L33.8519 23.5445M33.8519 23.5445C35.8488 22.8739 38.0599 22.9264 40.0142 23.6906M33.8519 23.5445L40.0142 23.6906M40.0142 23.6906C41.2846 24.1218 42.3737 24.8948 43.1309 25.9027C43.8881 26.9107 44.276 28.1039 44.2409 29.3173M40.0142 23.6906L44.2409 29.3173M44.2409 29.3173V32.6539C44.2409 33.1941 44.3595 33.2577 44.8956 33.0903L46.4824 32.6115C46.6831 32.5782 46.889 32.5782 47.0896 32.6115M44.2409 29.3173L47.0896 32.6115M47.0896 32.6115C47.2668 32.5976 47.4447 32.6295 47.602 32.7035C47.7593 32.7776 47.8894 32.8905 47.9767 33.0289M47.0896 32.6115L47.9767 33.0289M47.9767 33.0289C48.0918 33.1633 48.1541 33.3278 48.1541 33.4971C48.1541 33.6663 48.0918 33.8308 47.9767 33.9652C47.7183 34.2288 47.4289 34.4668 47.1134 34.6749C46.8117 34.8613 46.5034 35.035 46.1916 35.2106C45.947 35.3484 45.7002 35.4874 45.453 35.6346M47.9767 33.0289L45.453 35.6346M45.453 35.6346C44.8956 35.9672 44.5683 36.3633 44.8719 37.1768C45.4183 38.6746 46.4706 39.9845 47.8842 40.9265C48.3685 41.2643 48.7292 41.4731 49.1531 41.7183C49.3831 41.8514 49.6318 41.9953 49.9288 42.1764M45.453 35.6346L49.9288 42.1764M49.9288 42.1764C50.0653 42.2588 50.2008 42.3181 50.3149 42.368C50.5001 42.449 50.629 42.5054 50.6143 42.5959C50.6143 42.74 50.3819 42.9497 50.1945 43.0111M49.9288 42.1764L50.1945 43.0111M50.1945 43.0111C49.4473 43.2823 48.7002 43.5534 47.8605 43.7632M50.1945 43.0111L46.7623 44.8669M46.7623 44.8669C46.7699 44.5967 46.8843 44.3376 47.0853 44.1356C47.2864 43.9336 47.561 43.8016 47.8605 43.7632M46.7623 44.8669C46.7622 44.9526 46.7424 45.0373 46.7042 45.1159C46.666 45.1945 46.6101 45.2652 46.5401 45.3238C46.4701 45.3823 46.3874 45.4275 46.2971 45.4564C46.2068 45.4853 46.1109 45.4973 46.0151 45.4918L46.7623 44.8669ZM47.8605 43.7632L47.8478 43.664C47.8458 43.6642 47.8438 43.6645 47.8419 43.6648M47.8605 43.7632L47.8363 43.6662C47.8381 43.6657 47.84 43.6652 47.8419 43.6648" fill="white" stroke="black" stroke-width="0.2"/>
<defs>
<filter id="filter0_d_10_83" x="0" y="0" width="73.5385" height="70.9231" filterUnits="userSpaceOnUse" color-interpolation-filters="sRGB">
<feFlood flood-opacity="0" result="BackgroundImageFix"/>
<feColorMatrix in="SourceAlpha" type="matrix" values="0 0 0 0 0 0 0 0 0 0 0 0 0 0 0 0 0 0 127 0" result="hardAlpha"/>
<feOffset/>
<feGaussianBlur stdDeviation="8"/>
<feComposite in2="hardAlpha" operator="out"/>
<feColorMatrix type="matrix" values="0 0 0 0 0 0 0 0 0 0 0 0 0 0 0 0 0 0 0.32 0"/>
<feBlend mode="normal" in2="BackgroundImageFix" result="effect1_dropShadow_10_83"/>
<feBlend mode="normal" in="SourceGraphic" in2="effect1_dropShadow_10_83" result="shape"/>
</filter>
</defs>
</svg>
