<?xml version="1.0" encoding="UTF-8" standalone="no"?>
<!-- Created with Inkscape (http://www.inkscape.org/) -->

<svg
   width="361.14612"
   height="378.67294"
   viewBox="0 0 95.553232 100.19054"
   version="1.1"
   id="svg1"
   xml:space="preserve"
   sodipodi:docname="logo_white.svg"
   inkscape:version="1.3.2 (091e20e, 2023-11-25, custom)"
   xmlns:inkscape="http://www.inkscape.org/namespaces/inkscape"
   xmlns:sodipodi="http://sodipodi.sourceforge.net/DTD/sodipodi-0.dtd"
   xmlns:xlink="http://www.w3.org/1999/xlink"
   xmlns="http://www.w3.org/2000/svg"
   xmlns:svg="http://www.w3.org/2000/svg"><sodipodi:namedview
     id="namedview1"
     pagecolor="#505050"
     bordercolor="#eeeeee"
     borderopacity="1"
     inkscape:showpageshadow="0"
     inkscape:pageopacity="0"
     inkscape:pagecheckerboard="0"
     inkscape:deskcolor="#505050"
     inkscape:zoom="2.1680979"
     inkscape:cx="180.80365"
     inkscape:cy="189.33647"
     inkscape:window-width="1920"
     inkscape:window-height="1017"
     inkscape:window-x="-8"
     inkscape:window-y="-8"
     inkscape:window-maximized="1"
     inkscape:current-layer="g67" /><defs
     id="defs1"><linearGradient
       id="linearGradient62"><stop
         style="stop-color:#000000;stop-opacity:0.80000001;"
         offset="0"
         id="stop62" /><stop
         style="stop-color:#000000;stop-opacity:0;"
         offset="1"
         id="stop63" /></linearGradient><linearGradient
       id="linearGradient60"><stop
         style="stop-color:#000000;stop-opacity:1;"
         offset="0"
         id="stop60" /><stop
         style="stop-color:#000000;stop-opacity:0.80000001;"
         offset="1"
         id="stop61" /></linearGradient><linearGradient
       id="linearGradient58"><stop
         style="stop-color:#000000;stop-opacity:0.80000001;"
         offset="0"
         id="stop58" /><stop
         style="stop-color:#000000;stop-opacity:0.80000001;"
         offset="1"
         id="stop59" /></linearGradient><linearGradient
       id="linearGradient56"><stop
         style="stop-color:#000000;stop-opacity:1;"
         offset="0"
         id="stop56" /><stop
         style="stop-color:#000000;stop-opacity:0;"
         offset="1"
         id="stop57" /></linearGradient><linearGradient
       id="linearGradient54"><stop
         style="stop-color:#000000;stop-opacity:1;"
         offset="0"
         id="stop54" /><stop
         style="stop-color:#000000;stop-opacity:0.80000001;"
         offset="1"
         id="stop55" /></linearGradient><linearGradient
       id="linearGradient52"><stop
         style="stop-color:#000000;stop-opacity:0.80000001;"
         offset="0"
         id="stop52" /><stop
         style="stop-color:#000000;stop-opacity:0.80000001;"
         offset="1"
         id="stop53" /></linearGradient><linearGradient
       id="linearGradient50"><stop
         style="stop-color:#000000;stop-opacity:0.8047809;"
         offset="0"
         id="stop50" /><stop
         style="stop-color:#000000;stop-opacity:0.80079681;"
         offset="1"
         id="stop51" /></linearGradient><linearGradient
       id="linearGradient48"><stop
         style="stop-color:#000000;stop-opacity:0.8047809;"
         offset="0"
         id="stop48" /><stop
         style="stop-color:#000000;stop-opacity:0.8047809;"
         offset="1"
         id="stop49" /></linearGradient><linearGradient
       id="linearGradient46"><stop
         style="stop-color:#000000;stop-opacity:0.8047809;"
         offset="0"
         id="stop46" /><stop
         style="stop-color:#000000;stop-opacity:0.79681277;"
         offset="1"
         id="stop47" /></linearGradient><linearGradient
       id="linearGradient44"><stop
         style="stop-color:#000000;stop-opacity:0.8047809;"
         offset="0"
         id="stop44" /><stop
         style="stop-color:#000000;stop-opacity:0.79681277;"
         offset="1"
         id="stop45" /></linearGradient><linearGradient
       id="linearGradient42"><stop
         style="stop-color:#000000;stop-opacity:0.8047809;"
         offset="0"
         id="stop42" /><stop
         style="stop-color:#000000;stop-opacity:0.80079681;"
         offset="1"
         id="stop43" /></linearGradient><linearGradient
       id="linearGradient40"><stop
         style="stop-color:#000000;stop-opacity:0.8047809;"
         offset="0"
         id="stop40" /><stop
         style="stop-color:#000000;stop-opacity:0.80079681;"
         offset="1"
         id="stop41" /></linearGradient><linearGradient
       id="linearGradient38"><stop
         style="stop-color:#000000;stop-opacity:0.80079681;"
         offset="0"
         id="stop38" /><stop
         style="stop-color:#000000;stop-opacity:0.80079681;"
         offset="1"
         id="stop39" /></linearGradient><linearGradient
       id="linearGradient36"><stop
         style="stop-color:#000000;stop-opacity:0.8047809;"
         offset="0"
         id="stop36" /><stop
         style="stop-color:#000000;stop-opacity:0.8047809;"
         offset="1"
         id="stop37" /></linearGradient><linearGradient
       id="linearGradient34"><stop
         style="stop-color:#000000;stop-opacity:0.80079681;"
         offset="0"
         id="stop34" /><stop
         style="stop-color:#000000;stop-opacity:0.80000001;"
         offset="1"
         id="stop35" /></linearGradient><linearGradient
       id="linearGradient31"><stop
         style="stop-color:#000000;stop-opacity:0.28313252;"
         offset="0"
         id="stop31" /><stop
         style="stop-color:#000000;stop-opacity:0.36144578;"
         offset="1"
         id="stop32" /></linearGradient><radialGradient
       xlink:href="#linearGradient31"
       id="radialGradient32"
       cx="69.821976"
       cy="123.19789"
       fx="69.821976"
       fy="123.19789"
       r="50.890797"
       gradientTransform="matrix(1,0,0,0.1156206,0.00275364,98.276752)"
       gradientUnits="userSpaceOnUse" /><radialGradient
       xlink:href="#linearGradient31"
       id="radialGradient32-4"
       cx="69.821976"
       cy="123.19789"
       fx="69.821976"
       fy="123.19789"
       r="50.890797"
       gradientTransform="matrix(1,0,0,0.1156206,59.73839,98.512619)"
       gradientUnits="userSpaceOnUse" /><linearGradient
       xlink:href="#linearGradient34"
       id="linearGradient35"
       x1="62.663509"
       y1="22.735538"
       x2="69.935326"
       y2="22.735538"
       gradientUnits="userSpaceOnUse"
       gradientTransform="translate(0,-2.6458334)" /><linearGradient
       xlink:href="#linearGradient36"
       id="linearGradient37"
       x1="68.459908"
       y1="35.456074"
       x2="78.652008"
       y2="35.456074"
       gradientUnits="userSpaceOnUse"
       gradientTransform="translate(0,-2.6458334)" /><linearGradient
       xlink:href="#linearGradient38"
       id="linearGradient39"
       x1="54.156216"
       y1="35.383598"
       x2="64.1408"
       y2="35.383598"
       gradientUnits="userSpaceOnUse"
       gradientTransform="translate(0,-2.6458334)" /><linearGradient
       xlink:href="#linearGradient40"
       id="linearGradient41"
       x1="64.773308"
       y1="34.891926"
       x2="67.882164"
       y2="34.891926"
       gradientUnits="userSpaceOnUse"
       gradientTransform="translate(0,-2.6458334)" /><linearGradient
       xlink:href="#linearGradient42"
       id="linearGradient43"
       x1="75.39286"
       y1="47.909348"
       x2="83.929367"
       y2="47.909348"
       gradientUnits="userSpaceOnUse"
       gradientTransform="translate(0,-2.6458334)" /><linearGradient
       xlink:href="#linearGradient44"
       id="linearGradient45"
       x1="87.37336"
       y1="45.878281"
       x2="106.22064"
       y2="45.878281"
       gradientUnits="userSpaceOnUse"
       gradientTransform="translate(0,-2.6458334)" /><linearGradient
       xlink:href="#linearGradient46"
       id="linearGradient47"
       x1="87.246353"
       y1="53.480412"
       x2="94.51693"
       y2="53.480412"
       gradientUnits="userSpaceOnUse"
       gradientTransform="translate(0,-2.6458334)" /><linearGradient
       xlink:href="#linearGradient48"
       id="linearGradient49"
       x1="64.69062"
       y1="47.85651"
       x2="67.865623"
       y2="47.85651"
       gradientUnits="userSpaceOnUse"
       gradientTransform="translate(0,-2.6458334)" /><linearGradient
       xlink:href="#linearGradient50"
       id="linearGradient51"
       x1="64.756775"
       y1="60.953384"
       x2="67.931778"
       y2="60.953384"
       gradientUnits="userSpaceOnUse"
       gradientTransform="translate(0,-2.6458334)" /><linearGradient
       xlink:href="#linearGradient52"
       id="linearGradient53"
       x1="48.616955"
       y1="47.676723"
       x2="57.629757"
       y2="47.676723"
       gradientUnits="userSpaceOnUse"
       gradientTransform="translate(0,-2.6458334)" /><linearGradient
       xlink:href="#linearGradient54"
       id="linearGradient55"
       x1="38.099998"
       y1="53.414265"
       x2="45.370579"
       y2="53.414265"
       gradientUnits="userSpaceOnUse"
       gradientTransform="translate(0,-2.6458334)" /><linearGradient
       xlink:href="#linearGradient56"
       id="linearGradient57"
       x1="26.33806"
       y1="45.931168"
       x2="44.843319"
       y2="45.931168"
       gradientUnits="userSpaceOnUse" /><linearGradient
       xlink:href="#linearGradient58"
       id="linearGradient59"
       x1="21.31278"
       y1="70.470779"
       x2="111.37192"
       y2="70.470779"
       gradientUnits="userSpaceOnUse"
       gradientTransform="translate(0,-2.6458334)" /><linearGradient
       xlink:href="#linearGradient60"
       id="linearGradient61"
       x1="26.78546"
       y1="76.406052"
       x2="105.56875"
       y2="76.406052"
       gradientUnits="userSpaceOnUse"
       gradientTransform="translate(0,-2.6458334)" /><linearGradient
       xlink:href="#linearGradient62"
       id="linearGradient63"
       x1="43.933784"
       y1="89.690887"
       x2="91.65374"
       y2="89.690887"
       gradientUnits="userSpaceOnUse"
       gradientTransform="translate(0,-2.6458334)" /><linearGradient
       xlink:href="#linearGradient56"
       id="linearGradient67"
       gradientUnits="userSpaceOnUse"
       x1="26.33806"
       y1="45.931168"
       x2="44.843319"
       y2="45.931168" /></defs><g
     id="layer1"
     transform="translate(-19.01661,-16.284128)"><g
       id="g67"><path
         style="fill:#ffffff;fill-opacity:1;stroke:none;stroke-width:0.264583"
         d="m 111.23934,66.268293 c 0,0 0.14057,0.505169 -2.89403,0.994823 0.36175,4.928899 -1.77231,5.107224 -1.77231,5.107224 0,0 -1.64008,-3.569217 -40.564029,-2.936909 -35.212029,-0.453828 -39.954199,3.062961 -39.954199,3.062961 0,0 -1.98198,-0.611306 -2.194675,-5.633174 0,0 -17.5562889,-2.562519 42.000629,-3.677441 40.630594,-0.489803 45.378614,3.082516 45.378614,3.082516 z"
         id="path2" /><path
         style="fill:#ffffff;fill-opacity:1;stroke:none;stroke-width:0.264583"
         d="m 48.968055,76.248512 c -1.638216,-0.08177 -3.080709,-0.167581 -4.544794,-0.25788 M 42.384304,75.822921 C 28.19239,74.884803 26.962313,73.81356 26.962313,73.81356 c 0,0 1.600882,-2.481951 36.636905,-3.029253 0,0 41.837242,0.19017 41.837242,2.968295 0,1.012029 -5.29271,1.524453 -12.579177,1.966706 m -1.891328,0.08833 c -13.018186,-1.395116 -33.715371,0.381465 -38.913013,0.580116 -0.446357,0.01706 -0.519719,-0.04996 -0.946441,-0.06945"
         id="path8" /><path
         style="fill:#ffffff;fill-opacity:1;stroke:none;stroke-width:0.265;stroke-dasharray:none"
         d="m 63.070051,19.513019 2.315104,0.06615 1.008724,-2.827735 0.665716,2.825361 2.496463,-0.0058 -1.976123,1.578561 0.947137,2.321069 -2.093055,-1.695491 -2.022896,1.718877 0.760047,-2.373688 z"
         id="path9" /><path
         style="fill:#ffffff;fill-opacity:1;stroke:none;stroke-width:0.264583"
         d="m 87.652253,50.25784 2.315104,0.06615 1.008724,-2.827735 0.665716,2.825361 2.496463,-0.0058 -1.976123,1.578561 0.947137,2.321069 -2.093055,-1.695491 -2.022896,1.718877 0.760047,-2.373688 z"
         id="path9-4" /><path
         style="fill:#ffffff;fill-opacity:1;stroke:none;stroke-width:0.264583"
         d="m 38.505899,50.191694 2.315104,0.06615 1.008724,-2.827735 0.665716,2.825361 2.496463,-0.0058 -1.976123,1.578561 0.947137,2.321069 -2.093055,-1.695491 -2.022896,1.718877 0.760047,-2.373688 z"
         id="path9-4-2" /><rect
         style="fill:#ffffff;fill-opacity:1;stroke:none;stroke-width:0.264583"
         id="rect10"
         width="2.8442707"
         height="2.5796874"
         x="64.905602"
         y="30.956245" /><path
         style="fill:#ffffff;fill-opacity:1;stroke:none;stroke-width:0.264583"
         d="M 106.09792,52.850518 C 99.946353,37.570831 87.444791,33.668227 87.444791,33.668227 c 0,0 10.517195,6.746873 18.653129,19.182291 z"
         id="path16" /><ellipse
         style="fill:#ffffff;fill-opacity:1;stroke:none;stroke-width:0.264583"
         id="path17"
         cx="66.278122"
         cy="45.210674"
         rx="1.4552083"
         ry="1.2898437" /><ellipse
         style="fill:#ffffff;fill-opacity:1;stroke:none;stroke-width:0.264583"
         id="path17-5"
         cx="66.344276"
         cy="58.307549"
         rx="1.4552083"
         ry="1.2898437" /><path
         style="fill:#ffffff;fill-opacity:1;stroke:none;stroke-width:0.264583"
         d="m 76.65958,36.221835 c 3.695002,-3.718386 0.748356,-6.735191 0.748356,-6.735191 l -0.0024,-2.179929 c -5.37635,0.589675 -8.746113,3.914116 -8.746113,3.914116 l -0.06615,2.513542 c 0,0 3.061736,4.498666 8.019586,4.592211 z"
         id="path19" /><path
         style="fill:#ffffff;fill-opacity:1;stroke:none;stroke-width:0.264583"
         d="m 55.916126,38.139495 c 6.477943,-1.028989 8.091585,-4.583674 8.091585,-4.583674 l -0.07016,-2.525696 c 0,0 -2.61924,-2.595855 -8.629463,-3.671615 l 0.04677,2.245064 c 0,0 -2.622581,2.731178 0.350791,5.893293 1.627054,4.155672 -1.753956,1.894274 0.210475,2.642628 z"
         id="path20" /><path
         style="fill:none;stroke:#ff0000;stroke-width:0.264583;stroke-opacity:1"
         d="m 70.053014,82.608132 c 0,0 0.298172,0.432644 -0.274788,0.304019 m -10.886001,6.361976 c -0.01368,-0.01147 0.01345,0.01127 0,0 z"
         id="path22" /><path
         style="fill:#000000;fill-opacity:0.993884;stroke:none;stroke-width:0.264583;stroke-opacity:1"
         d="m 92.806737,75.745245 c 0,0 0.34488,-11.268794 -12.751995,0.637456"
         id="path25" /><path
         style="fill:#000000;fill-opacity:1;stroke:none;stroke-width:0.264583;stroke-opacity:1"
         d="m 42.300469,75.924896 c 0,0 -0.628595,-6.141044 7.110468,-3.131409 4.696354,-3.538802 12.03986,2.950137 12.03986,2.950137 0,0 1.327994,-8.807371 7.837992,-2.979379 6.509998,5.827992 4.306658,3.610424 4.4872,3.778515"
         id="path27" /><g
         id="g30"
         style="fill:#ffffff;fill-opacity:1;stroke:none"
         transform="translate(0,-2.6458334)"><path
           style="fill:#ffffff;fill-opacity:1;stroke:none;stroke-width:0.264583;stroke-opacity:1"
           d="m 26.473046,55.378246 c 0,0 10.800763,-14.683624 18.305682,-18.88227 0,0 -11.093963,3.166718 -18.320395,18.942499"
           id="path30" /></g><text
         xml:space="preserve"
         style="font-style:normal;font-variant:normal;font-weight:normal;font-stretch:normal;font-size:11.2889px;font-family:Calibri;-inkscape-font-specification:'Calibri, Normal';font-variant-ligatures:normal;font-variant-caps:normal;font-variant-numeric:normal;font-variant-east-asian:normal;fill:#ffffff;fill-opacity:1;stroke:url(#radialGradient32);stroke-width:0.865;stroke-linejoin:round;stroke-dasharray:none"
         x="19.366428"
         y="115.70152"
         id="text31"><tspan
           id="tspan31"
           style="font-style:normal;font-variant:normal;font-weight:normal;font-stretch:normal;font-size:11.2889px;font-family:Calibri;-inkscape-font-specification:'Calibri, Normal';font-variant-ligatures:normal;font-variant-caps:normal;font-variant-numeric:normal;font-variant-east-asian:normal;fill:#ffffff;fill-opacity:1;stroke:url(#radialGradient32);stroke-width:0.865;stroke-linejoin:round;stroke-dasharray:none;stroke-opacity:0.0892857"
           x="19.366428"
           y="115.70152">THE PERFECT</tspan></text><text
         xml:space="preserve"
         style="font-style:italic;font-variant:normal;font-weight:normal;font-stretch:normal;font-size:11.2889px;font-family:Calibri;-inkscape-font-specification:'Calibri, Italic';font-variant-ligatures:normal;font-variant-caps:normal;font-variant-numeric:normal;font-variant-east-asian:normal;fill:#ececec;fill-opacity:0.801223;stroke:url(#radialGradient32-4);stroke-width:0.865;stroke-linejoin:round;stroke-dasharray:none"
         x="79.102074"
         y="115.93745"
         id="text31-0"><tspan
           id="tspan31-8"
           style="font-style:italic;font-variant:normal;font-weight:normal;font-stretch:normal;font-size:11.2889px;font-family:Calibri;-inkscape-font-specification:'Calibri, Italic';font-variant-ligatures:normal;font-variant-caps:normal;font-variant-numeric:normal;font-variant-east-asian:normal;fill:#ececec;fill-opacity:0.801223;stroke:url(#radialGradient32-4);stroke-width:0.865;stroke-linejoin:round;stroke-dasharray:none;stroke-opacity:0.0892857"
           x="79.102074"
           y="115.93745">Waiters</tspan></text><path
         style="fill:#ffffff;fill-opacity:1;stroke:none;stroke-width:0.265;stroke-linejoin:round;stroke-dasharray:none"
         d="m 83.722177,30.281769 c 0,0 -4.115949,19.083046 -8.19682,29.86403 l 1.186842,0.09939 c 8.3196,-17.989742 7.009978,-29.963419 7.009978,-29.96342 z"
         id="path32" /><path
         style="fill:#ffffff;fill-opacity:1;stroke:none;stroke-width:0.264999;stroke-linejoin:round;stroke-dasharray:none"
         d="m 48.749479,29.96406 c 0,0 -0.06615,16.073438 7.321517,30.083952 l 1.426269,0.04961 c -3.257682,-7.247101 -8.747786,-30.13356 -8.747786,-30.13356 z"
         id="path33" /><path
         style="fill:#ffffff;fill-opacity:1;stroke:none;stroke-width:0.264583"
         d="m 58.541067,89.111057 c -2.654921,-1.383972 -4.946406,-2.906502 -4.946406,-2.906502 0,0 -0.140959,0.603337 4.845182,6.002733 3.307292,3.373438 5.041127,2.344509 9.293489,7.044518 0,0 0.71723,0.0468 4.572332,2.548684 0,0 10.741402,1.32818 11.964127,-9.791639 -1.302973,-3.729834 -2.196109,-5.812474 3.439583,-13.229166 0,0 5.507555,-2.871665 3.285877,-5.724767 -2.221678,-2.853103 -8.278673,2.689397 -8.512534,2.759557 0,0 -2.525697,3.835318 -3.624843,4.162723 0,0 -3.928862,0.701583 -8.723009,-5.051394 0,0 -3.203894,-3.788545 -6.384401,-1.73057 0,0 -0.859438,0.327405 -0.496954,1.675028 0.589187,2.190446 3.88646,5.334865 6.834583,7.796336 l -0.309867,0.245553 c -0.572958,-0.128625 -10.845295,-5.858214 -11.59365,-6.980745 0,0 -4.583672,-4.583673 -8.044813,-1.590254 -0.283618,0.541917 0.381376,1.329671 0.778844,1.878927 3.779544,5.222904 6.905378,5.091228 14.655971,12.620445 -11.545885,-6.831288 -0.230677,-0.264344 -15.472589,-10.889891 -0.153787,-0.223874 -2.092745,-3.076216 -1.55248,-3.79657 0.561266,-0.748354 -4.11595,-1.028987 -4.303039,0.187089 -0.187089,1.216076 -1.122532,1.403165 4.209495,5.425571 4.014477,4.251782 4.113598,4.207773 9.909807,9.058244 0.08319,0.06961 0.167546,0.142536 0.253108,0.216364 0.07658,0.06608 0.15412,0.13288 0.232645,0.198686 m -0.310458,-0.12896 c 0.09809,0.05113 0.196669,0.102073 0.295651,0.152742"
         id="path24" /><path
         style="fill:#ffffff;fill-opacity:1;stroke:none;stroke-width:0.264999;stroke-linejoin:round;stroke-dasharray:none;stroke-opacity:1"
         d="m 81.93899,74.753331 -1.543482,1.312543 -7.390002,0.0117 -1.274541,-1.145922 z"
         id="path67" /></g></g></svg>
