<svg width="46" height="46" viewBox="0 0 46 46" fill="none" xmlns="http://www.w3.org/2000/svg">
<g clip-path="url(#clip0_10_86)">
<path d="M35.2188 0H10.7812C4.82693 0 0 4.82693 0 10.7812V35.2188C0 41.1731 4.82693 46 10.7812 46H35.2188C41.1731 46 46 41.1731 46 35.2188V10.7812C46 4.82693 41.1731 0 35.2188 0Z" fill="#F4F2ED"/>
<path d="M7.48147 36.4837H13.1988V22.5987L5.03125 16.4731V34.0335C5.03125 35.3892 6.12986 36.4837 7.48147 36.4837Z" fill="#4285F4"/>
<path d="M32.8011 36.4836H38.5185C39.8743 36.4836 40.9688 35.385 40.9688 34.0334V16.4729L32.8011 22.5986" fill="#34A853"/>
<path d="M32.8011 11.9806V22.5985L40.9688 16.4729V13.2055C40.9688 10.1754 37.5098 8.4479 35.0881 10.2653" fill="#FBBC04"/>
<path d="M13.1989 22.5986V11.9808L23 19.3313L32.8011 11.9805V22.5984L23 29.9494" fill="#EA4335"/>
<path d="M5.03125 13.2057V16.4728L13.1988 22.5985V11.9808L10.9119 10.2655C8.4861 8.44815 5.03125 10.1757 5.03125 13.2057Z" fill="#C5221F"/>
</g>
<defs>
<clipPath id="clip0_10_86">
<rect width="46" height="46" fill="white"/>
</clipPath>
</defs>
</svg>
